<?xml version="1.0" encoding="UTF-8" standalone="no"?>
<svg
   xmlns:dc="http://purl.org/dc/elements/1.1/"
   xmlns:cc="http://creativecommons.org/ns#"
   xmlns:rdf="http://www.w3.org/1999/02/22-rdf-syntax-ns#"
   xmlns:svg="http://www.w3.org/2000/svg"
   xmlns="http://www.w3.org/2000/svg"
   xmlns:sodipodi="http://sodipodi.sourceforge.net/DTD/sodipodi-0.dtd"
   xmlns:inkscape="http://www.inkscape.org/namespaces/inkscape"
   version="1.1"
   viewBox="0 0 1700 1700"
   id="svg3018"
   inkscape:version="0.48.3.1 r9886"
   width="100%"
   height="100%"
   sodipodi:docname="logo.svg">
  <metadata
     id="metadata3030">
    <rdf:RDF>
      <cc:Work
         rdf:about="">
        <dc:format>image/svg+xml</dc:format>
        <dc:type
           rdf:resource="http://purl.org/dc/dcmitype/StillImage" />
      </cc:Work>
    </rdf:RDF>
  </metadata>
  <defs
     id="defs3028" />
  <sodipodi:namedview
     pagecolor="#ffffff"
     bordercolor="#666666"
     borderopacity="1"
     objecttolerance="10"
     gridtolerance="10"
     guidetolerance="10"
     inkscape:pageopacity="0"
     inkscape:pageshadow="2"
     inkscape:window-width="1366"
     inkscape:window-height="709"
     id="namedview3026"
     showgrid="false"
     fit-margin-top="0"
     fit-margin-left="0"
     fit-margin-right="0"
     fit-margin-bottom="0"
     inkscape:zoom="0.36062103"
     inkscape:cx="850"
     inkscape:cy="850"
     inkscape:window-x="0"
     inkscape:window-y="27"
     inkscape:window-maximized="1"
     inkscape:current-layer="svg3018" />
  <circle
     cx="708.5"
     cy="708.5"
     r="850"
     id="circle3020"
     sodipodi:cx="708.5"
     sodipodi:cy="708.5"
     sodipodi:rx="850"
     sodipodi:ry="850"
     style="fill:#232932"
     transform="translate(141.5,141.5)" />
  <circle
     cx="708.5"
     cy="708.5"
     r="637"
     id="circle3022"
     sodipodi:cx="708.5"
     sodipodi:cy="708.5"
     sodipodi:rx="637"
     sodipodi:ry="637"
     style="fill:none;stroke:#ffffff;stroke-width:85"
     transform="translate(141.5,141.5)" />
  <path
     id="n"
     style="fill:#ffffff"
     d="M 770.261,1109.328 V 852 c 0,-22.844 -3.641,-39.656 -10.891,-50.469 -7.266,-10.797 -19.609,-16.203 -37.016,-16.203 -6.219,0 -13.172,0.844 -20.844,2.5 -7.672,1.656 -15.344,4.047 -23.016,7.156 -7.672,3.125 -15.234,6.656 -22.703,10.594 -7.469,3.953 -14.313,8.203 -20.531,12.766 v 290.984 h -109 v -384 h 97.125 l 9.953,44.828 h 1.25 c 7.469,-4.969 16.484,-10.469 27.078,-16.5 10.578,-6.016 22.094,-11.719 34.547,-17.125 12.453,-5.391 25.328,-9.938 38.609,-13.641 13.281,-3.703 26.344,-5.563 39.219,-5.563 14.531,0 28.125,2.391 40.781,7.172 12.657,4.781 23.75,11.844 33.297,21.188 9.547,9.344 17.125,21.078 22.734,35.203 5.594,14.125 8.406,30.75 8.406,49.859 v 278.578 H 770.261 z"
     inkscape:connector-curvature="0" />
  <path
     id="two"
     style="fill:#ffffff"
     d="m 1030.024,821.328 c 11.203,0 25.422,-0.078 42.641,-0.25 17.219,-0.156 34.078,-0.406 50.609,-0.75 19.406,-0.406 39.453,-1.016 60.172,-1.859 l -9.328,62.859 H 960.29 v -32.344 l 92.141,-106.953 c 7.469,-8.703 14,-17 19.609,-24.875 5.594,-7.875 10.266,-15.844 14,-23.938 3.734,-8.078 6.531,-16.469 8.406,-25.188 1.875,-8.703 2.813,-18.234 2.813,-28.609 0,-36.063 -18.469,-54.094 -55.406,-54.094 -12.047,0 -24.813,1.219 -38.297,3.625 -13.484,2.406 -26.031,5.625 -37.656,9.641 l 8.719,-56.672 c 4.563,-1.656 10.266,-3.109 17.109,-4.359 6.843,-1.25 14.016,-2.391 21.484,-3.422 7.468,-1.031 14.938,-1.766 22.406,-2.188 7.469,-0.406 13.906,-0.625 19.313,-0.625 38.953,0 67.406,8 85.375,23.969 17.969,15.969 26.953,36.813 26.953,62.531 0,12.453 -2.484,24.906 -7.438,37.344 -4.969,12.453 -11.359,24.688 -19.203,36.719 -7.844,12.031 -16.734,23.859 -26.641,35.469 -9.906,11.625 -19.641,22.828 -29.172,33.609 l -54.781,60.36 z"
     inkscape:connector-curvature="0" />
</svg>
